<svg viewBox="0 0 64 64" xmlns="http://www.w3.org/2000/svg" aria-label="avispa BAGO">
  <defs>
    <linearGradient id="wg" x1="0" y1="0" x2="1" y2="1">
      <stop offset="0%" stop-color="#fde68a"/>
      <stop offset="100%" stop-color="#fbbf24"/>
    </linearGradient>
  </defs>
  <!-- wings -->
  <ellipse cx="22" cy="22" rx="14" ry="9" fill="rgba(125,211,252,0.45)" stroke="rgba(125,211,252,0.7)" stroke-width="1"/>
  <ellipse cx="42" cy="22" rx="14" ry="9" fill="rgba(125,211,252,0.45)" stroke="rgba(125,211,252,0.7)" stroke-width="1"/>
  <!-- body -->
  <ellipse cx="32" cy="36" rx="9" ry="16" fill="url(#wg)" stroke="#0f172a" stroke-width="1.5"/>
  <!-- stripes -->
  <path d="M23 30 Q32 33 41 30" stroke="#0f172a" stroke-width="2.5" fill="none"/>
  <path d="M23 38 Q32 41 41 38" stroke="#0f172a" stroke-width="2.5" fill="none"/>
  <path d="M23 46 Q32 49 41 46" stroke="#0f172a" stroke-width="2.5" fill="none"/>
  <!-- head -->
  <circle cx="32" cy="14" r="6" fill="#1e293b" stroke="#0f172a" stroke-width="1.5"/>
  <!-- eyes -->
  <circle cx="29" cy="13" r="1.2" fill="#fde68a"/>
  <circle cx="35" cy="13" r="1.2" fill="#fde68a"/>
  <!-- antennae -->
  <path d="M30 9 Q28 5 25 4" stroke="#1e293b" stroke-width="1.5" fill="none" stroke-linecap="round"/>
  <path d="M34 9 Q36 5 39 4" stroke="#1e293b" stroke-width="1.5" fill="none" stroke-linecap="round"/>
  <circle cx="25" cy="4" r="1.2" fill="#1e293b"/>
  <circle cx="39" cy="4" r="1.2" fill="#1e293b"/>
  <!-- stinger -->
  <path d="M32 52 L30 58 L34 58 Z" fill="#0f172a"/>
</svg>
